<?xml version="1.0" encoding="utf-8"?>
<!-- Generator: Adobe Illustrator 14.0.0, SVG Export Plug-In . SVG Version: 6.00 Build 43363)  -->
<!DOCTYPE svg PUBLIC "-//W3C//DTD SVG 1.1//EN" "http://www.w3.org/Graphics/SVG/1.1/DTD/svg11.dtd">
<svg version="1.1" xmlns="http://www.w3.org/2000/svg" xmlns:xlink="http://www.w3.org/1999/xlink" x="0px" y="0px" width="612px"
	 height="792px" viewBox="0 0 612 792" enable-background="new 0 0 612 792" xml:space="preserve">
<g id="Layer_7">
	<path fill="#316F92" stroke="#316F92" d="M391.334,405c0,43.723-35.444,79.167-79.167,79.167S233,448.723,233,405
		c0-43.722,35.444-79.167,79.167-79.167S391.334,361.278,391.334,405z M312.334,338.167c-36.543,0-66.167,29.624-66.167,66.167
		c0,36.542,29.624,66.166,66.167,66.166c36.542,0,66.166-29.624,66.166-66.166C378.5,367.791,348.876,338.167,312.334,338.167z"/>
</g>
<g id="Layer_6">
	<path fill="#C25859" stroke="#C25859" d="M312,521.447c-65.877,0-119.281-53.403-119.281-119.28
		c0-65.877,53.403-119.281,119.281-119.281c65.877,0,119.28,53.403,119.28,119.281C431.28,468.044,377.877,521.447,312,521.447z
		 M312.743,295.5c-59.095,0-107,47.905-107,107s47.905,107,107,107s107-47.905,107-107S371.838,295.5,312.743,295.5z"/>
</g>
<g id="Layer_5">
	<path fill="#316F92" stroke="#316F92" d="M312,561.195c-88.386,0-160.036-71.651-160.036-160.036
		c0-88.386,71.65-160.036,160.036-160.036c88.385,0,160.036,71.65,160.036,160.036C472.036,489.544,400.385,561.195,312,561.195z
		 M459.834,401.834c0-81.37-65.964-147.333-147.334-147.333c-81.37,0-147.333,65.963-147.333,147.333
		c0,81.369,65.963,147.333,147.333,147.333C393.87,549.167,459.834,483.203,459.834,401.834z"/>
</g>
<g id="Layer_4">
	<path fill="#C25859" stroke="#C25859" d="M113.334,402.668c0-110.457,89.543-200,199.998-200c110.458,0,200.001,89.543,200.001,200
		c0,110.457-89.543,200-200.001,200C202.877,602.668,113.334,513.125,113.334,402.668z M312.332,590.66
		c103.642,0,187.659-84.018,187.659-187.658c0-103.64-84.018-187.658-187.659-187.658c-103.639,0-187.656,84.018-187.656,187.658
		C124.676,506.643,208.693,590.66,312.332,590.66z"/>
</g>
<g id="Layer_3">
	<g id="Layer_2">
		<path fill="#316F92" stroke="#316F92" d="M312.666,641.943C180.703,641.943,73.725,534.966,73.725,403
			c0-131.962,106.978-238.94,238.941-238.94c131.963,0,238.942,104.297,238.942,238.94
			C551.608,534.966,444.631,641.943,312.666,641.943z M539.853,403c0-125.469-101.716-227.183-227.187-227.183
			c-125.47,0-227.184,101.714-227.184,227.183c0,125.472,101.714,227.188,227.184,227.188
			C438.137,630.188,539.853,528.472,539.853,403z"/>
	</g>
	<circle fill="#316F92" stroke="#316F92" cx="349.438" cy="398.438" r="13.938"/>
	<circle fill="#C25859" stroke="#C25859" cx="337.563" cy="431.938" r="13.438"/>
</g>
</svg>
